<?xml version="1.0" encoding="utf-8"?>
<!-- Generator: Adobe Illustrator 18.1.0, SVG Export Plug-In . SVG Version: 6.00 Build 0)  -->
<!DOCTYPE svg PUBLIC "-//W3C//DTD SVG 1.1//EN" "http://www.w3.org/Graphics/SVG/1.1/DTD/svg11.dtd">
<svg version="1.1" id="Layer_1" xmlns="http://www.w3.org/2000/svg" xmlns:xlink="http://www.w3.org/1999/xlink" x="0px" y="0px"
	 width="77px" height="24.8px" viewBox="0 0 77 24.8" enable-background="new 0 0 77 24.8" xml:space="preserve">
<path fill="#FFFFFF" d="M12.4,0C5.6,0,0,5.6,0,12.4s5.6,12.4,12.4,12.4c6.9,0,12.4-5.6,12.4-12.4S19.3,0,12.4,0z M64.6,0
	c-6.9,0-12.4,5.6-12.4,12.4c0,6.9,5.6,12.4,12.4,12.4V12.4H77C77,5.6,71.4,0,64.6,0z M38.7,0L38.7,0L26.1,0v24.8h12.4c0,0,0,0,0,0
	c0,0,0,0,0,0h12.4V12.4C50.9,5.6,45.5,0.1,38.7,0z"/>
</svg>
